<svg width="75" height="75" viewBox="0 0 75 75" fill="none" xmlns="http://www.w3.org/2000/svg">
<path d="M49.5535 2.67859L62.9464 16.0714L49.5535 29.4643" stroke="black" stroke-width="5" stroke-linecap="round" stroke-linejoin="round"/>
<path d="M65.625 44.1964C65.625 49.759 63.9755 55.1968 60.885 59.8216C57.7945 64.447 53.4021 68.0518 48.263 70.1807C43.1238 72.3091 37.4688 72.8662 32.0131 71.7809C26.5574 70.6961 21.546 68.017 17.6126 64.0837C13.6793 60.1505 11.0006 55.1389 9.91543 49.6833C8.83023 44.2276 9.38716 38.5726 11.5159 33.4334C13.6446 28.2943 17.2495 23.9017 21.8746 20.8113C26.4997 17.7209 31.9374 16.0714 37.5 16.0714H62.9464" stroke="black" stroke-width="5" stroke-linecap="round" stroke-linejoin="round"/>
<path d="M32.8691 35.7031V50H31.0625V37.959L27.4199 39.2871V37.6562L32.5859 35.7031H32.8691ZM40.4668 43.2324L39.0215 42.8613L39.7344 35.7812H47.0293V37.4512H41.2676L40.8379 41.3184C41.0983 41.1686 41.4271 41.0286 41.8242 40.8984C42.2279 40.7682 42.6901 40.7031 43.2109 40.7031C43.8685 40.7031 44.4577 40.8171 44.9785 41.0449C45.4993 41.2663 45.9421 41.5853 46.3066 42.002C46.6777 42.4186 46.9609 42.9199 47.1562 43.5059C47.3516 44.0918 47.4492 44.7461 47.4492 45.4688C47.4492 46.1523 47.3548 46.7806 47.166 47.3535C46.9837 47.9264 46.707 48.4277 46.3359 48.8574C45.9648 49.2806 45.4961 49.6094 44.9297 49.8438C44.3698 50.0781 43.709 50.1953 42.9473 50.1953C42.3743 50.1953 41.8307 50.1172 41.3164 49.9609C40.8086 49.7982 40.3529 49.554 39.9492 49.2285C39.5521 48.8965 39.2266 48.4863 38.9727 47.998C38.7253 47.5033 38.569 46.9238 38.5039 46.2598H40.2227C40.3008 46.7936 40.457 47.2428 40.6914 47.6074C40.9258 47.972 41.2318 48.2487 41.6094 48.4375C41.9935 48.6198 42.4395 48.7109 42.9473 48.7109C43.377 48.7109 43.7578 48.6361 44.0898 48.4863C44.4219 48.3366 44.7018 48.1217 44.9297 47.8418C45.1576 47.5618 45.3301 47.2233 45.4473 46.8262C45.571 46.429 45.6328 45.9831 45.6328 45.4883C45.6328 45.0391 45.571 44.6224 45.4473 44.2383C45.3236 43.8542 45.138 43.5189 44.8906 43.2324C44.6497 42.946 44.3535 42.7246 44.002 42.5684C43.6504 42.4056 43.2467 42.3242 42.791 42.3242C42.1855 42.3242 41.7266 42.4056 41.4141 42.5684C41.1081 42.7311 40.7923 42.9525 40.4668 43.2324Z" fill="black"/>
</svg>
