<svg width="90" height="90" viewBox="0 0 90 90" fill="none" xmlns="http://www.w3.org/2000/svg">
<path d="M59.4642 3.21423L75.5357 19.2857L59.4642 35.3571" stroke="black" stroke-width="5" stroke-linecap="round" stroke-linejoin="round"/>
<path d="M78.75 53.0357C78.75 59.7108 76.7706 66.2361 73.062 71.7859C69.3534 77.3363 64.0826 81.6621 57.9156 84.2168C51.7486 86.7709 44.9626 87.4394 38.4157 86.137C31.8689 84.8352 25.8552 81.6203 21.1351 76.9004C16.4152 72.1806 13.2007 66.1667 11.8985 59.6199C10.5963 53.0731 11.2646 46.2871 13.819 40.1201C16.3735 33.9531 20.6994 28.682 26.2495 24.9735C31.7997 21.2651 38.3249 19.2856 45 19.2856H75.5357" stroke="black" stroke-width="5" stroke-linecap="round" stroke-linejoin="round"/>
<path d="M35.6037 42.5547V64H32.8937V45.9385L27.4299 47.9307V45.4844L35.1789 42.5547H35.6037ZM47.0002 53.8486L44.8322 53.292L45.9016 42.6719H56.8439V45.1768H48.2014L47.5568 50.9775C47.9475 50.7529 48.4406 50.543 49.0363 50.3477C49.6418 50.1523 50.3352 50.0547 51.1164 50.0547C52.1027 50.0547 52.9865 50.2256 53.7678 50.5674C54.549 50.8994 55.2131 51.3779 55.76 52.0029C56.3166 52.6279 56.7414 53.3799 57.0344 54.2588C57.3273 55.1377 57.4738 56.1191 57.4738 57.2031C57.4738 58.2285 57.3322 59.1709 57.049 60.0303C56.7756 60.8896 56.3605 61.6416 55.8039 62.2861C55.2473 62.9209 54.5441 63.4141 53.6945 63.7656C52.8547 64.1172 51.8635 64.293 50.7209 64.293C49.8615 64.293 49.0461 64.1758 48.2746 63.9414C47.5129 63.6973 46.8293 63.3311 46.2238 62.8428C45.6281 62.3447 45.1398 61.7295 44.759 60.9971C44.3879 60.2549 44.1535 59.3857 44.0559 58.3896H46.634C46.7512 59.1904 46.9855 59.8643 47.3371 60.4111C47.6887 60.958 48.1477 61.373 48.7141 61.6562C49.2902 61.9297 49.9592 62.0664 50.7209 62.0664C51.3654 62.0664 51.9367 61.9541 52.4348 61.7295C52.9328 61.5049 53.3527 61.1826 53.6945 60.7627C54.0363 60.3428 54.2951 59.835 54.4709 59.2393C54.6564 58.6436 54.7492 57.9746 54.7492 57.2324C54.7492 56.5586 54.6564 55.9336 54.4709 55.3574C54.2854 54.7812 54.007 54.2783 53.6359 53.8486C53.2746 53.4189 52.8303 53.0869 52.3029 52.8525C51.7756 52.6084 51.1701 52.4863 50.4865 52.4863C49.5783 52.4863 48.8898 52.6084 48.4211 52.8525C47.9621 53.0967 47.4885 53.4287 47.0002 53.8486Z" fill="black"/>
</svg>
