<svg width="106" height="106" viewBox="0 0 106 106" fill="none" xmlns="http://www.w3.org/2000/svg">
<path d="M53 103C80.6146 103 103 80.6146 103 53C103 25.3858 80.6146 3 53 3C25.3858 3 3 25.3858 3 53C3 80.6146 25.3858 103 53 103Z" fill="black"/>
<path d="M38 69.7485C38.0123 70.414 38.2193 71.0636 38.5986 71.6266C38.9778 72.1896 39.5149 72.6447 40.1513 72.942C40.7868 73.278 41.5044 73.4546 42.2343 73.4546C42.9642 73.4546 43.6818 73.278 44.3173 72.942L73.8549 55.8569C74.4975 55.5673 75.0398 55.114 75.4195 54.549C75.7989 53.9841 76 53.3305 76 52.6633C76 51.9962 75.7989 51.3426 75.4195 50.7776C75.0398 50.2127 74.4975 49.7594 73.8549 49.4698L44.3173 32.5123C43.6818 32.1765 42.9642 32 42.2343 32C41.5044 32 40.7868 32.1765 40.1513 32.5123C39.5149 32.8099 38.9778 33.2649 38.5986 33.828C38.2193 34.391 38.0123 35.0405 38 35.7058V69.7485Z" fill="white"/>
<path d="M53 103C80.6146 103 103 80.6146 103 53C103 25.3858 80.6146 3 53 3C25.3858 3 3 25.3858 3 53C3 80.6146 25.3858 103 53 103Z" stroke="white" stroke-width="5" stroke-linecap="round" stroke-linejoin="round"/>
<path d="M38 69.7485C38.0123 70.414 38.2193 71.0636 38.5986 71.6266C38.9778 72.1896 39.5149 72.6447 40.1513 72.942C40.7868 73.278 41.5044 73.4546 42.2343 73.4546C42.9642 73.4546 43.6818 73.278 44.3173 72.942L73.8549 55.8569C74.4975 55.5673 75.0398 55.114 75.4195 54.549C75.7989 53.9841 76 53.3305 76 52.6633C76 51.9962 75.7989 51.3426 75.4195 50.7776C75.0398 50.2127 74.4975 49.7594 73.8549 49.4698L44.3173 32.5123C43.6818 32.1765 42.9642 32 42.2343 32C41.5044 32 40.7868 32.1765 40.1513 32.5123C39.5149 32.8099 38.9778 33.2649 38.5986 33.828C38.2193 34.391 38.0123 35.0405 38 35.7058V69.7485Z" stroke="white" stroke-width="5" stroke-linecap="round" stroke-linejoin="round"/>
</svg>
