<svg width="90" height="90" viewBox="0 0 90 90" fill="none" xmlns="http://www.w3.org/2000/svg">
<path d="M30.5357 3.21423L14.4643 19.2857L30.5357 35.3571" stroke="black" stroke-width="5" stroke-linecap="round" stroke-linejoin="round"/>
<path d="M11.25 53.0357C11.25 59.7108 13.2294 66.2361 16.9379 71.7859C20.6464 77.3363 25.9174 81.6621 32.0844 84.2168C38.2514 86.7709 45.0374 87.4394 51.5843 86.137C58.1311 84.8352 64.1449 81.6203 68.8648 76.9004C73.5847 72.1806 76.7996 66.1667 78.1014 59.6199C79.4038 53.0731 78.7352 46.2871 76.1812 40.1201C73.6264 33.9531 69.3007 28.682 63.7505 24.9735C58.2004 21.2651 51.6751 19.2856 45 19.2856H14.4643" stroke="black" stroke-width="5" stroke-linecap="round" stroke-linejoin="round"/>
<path d="M37.6037 42.5547V64H34.8937V45.9385L29.4299 47.9307V45.4844L37.1789 42.5547H37.6037ZM49.0002 53.8486L46.8322 53.292L47.9016 42.6719H58.8439V45.1768H50.2014L49.5568 50.9775C49.9475 50.7529 50.4406 50.543 51.0363 50.3477C51.6418 50.1523 52.3352 50.0547 53.1164 50.0547C54.1027 50.0547 54.9865 50.2256 55.7678 50.5674C56.549 50.8994 57.2131 51.3779 57.76 52.0029C58.3166 52.6279 58.7414 53.3799 59.0344 54.2588C59.3273 55.1377 59.4738 56.1191 59.4738 57.2031C59.4738 58.2285 59.3322 59.1709 59.049 60.0303C58.7756 60.8896 58.3605 61.6416 57.8039 62.2861C57.2473 62.9209 56.5441 63.4141 55.6945 63.7656C54.8547 64.1172 53.8635 64.293 52.7209 64.293C51.8615 64.293 51.0461 64.1758 50.2746 63.9414C49.5129 63.6973 48.8293 63.3311 48.2238 62.8428C47.6281 62.3447 47.1398 61.7295 46.759 60.9971C46.3879 60.2549 46.1535 59.3857 46.0559 58.3896H48.634C48.7512 59.1904 48.9855 59.8643 49.3371 60.4111C49.6887 60.958 50.1477 61.373 50.7141 61.6562C51.2902 61.9297 51.9592 62.0664 52.7209 62.0664C53.3654 62.0664 53.9367 61.9541 54.4348 61.7295C54.9328 61.5049 55.3527 61.1826 55.6945 60.7627C56.0363 60.3428 56.2951 59.835 56.4709 59.2393C56.6564 58.6436 56.7492 57.9746 56.7492 57.2324C56.7492 56.5586 56.6564 55.9336 56.4709 55.3574C56.2853 54.7812 56.007 54.2783 55.6359 53.8486C55.2746 53.4189 54.8303 53.0869 54.3029 52.8525C53.7756 52.6084 53.1701 52.4863 52.4865 52.4863C51.5783 52.4863 50.8898 52.6084 50.4211 52.8525C49.9621 53.0967 49.4885 53.4287 49.0002 53.8486Z" fill="black"/>
</svg>
